<svg xmlns="http://www.w3.org/2000/svg" viewBox="0 0 48 48" fill="none">
  <!-- Yanai himself: dome, brows, stache. -->
  <circle cx="24" cy="24" r="22" fill="#fff7e6"/>
  <path d="M24 7 Q40 7 42 24 Q43 33 37 38 Q31 42 24 42 Q17 42 11 38 Q5 33 6 24 Q8 7 24 7 Z"
        fill="#c06a3c" stroke="#241812" stroke-width="2.6"/>
  <path d="M10 19 Q15 15.5 20 17.5 L19.4 20.6 Q15 19 11 21 Z" fill="#241812"/>
  <path d="M38 19 Q33 15.5 28 17.5 L28.6 20.6 Q33 19 37 21 Z" fill="#241812"/>
  <circle cx="17" cy="24.5" r="3.4" fill="#f7f1e6" stroke="#241812" stroke-width="1.6"/>
  <circle cx="31" cy="24.5" r="3.4" fill="#f7f1e6" stroke="#241812" stroke-width="1.6"/>
  <circle cx="18" cy="25" r="1.5" fill="#241812"/>
  <circle cx="30" cy="25" r="1.5" fill="#241812"/>
  <path d="M24 30 Q17 28.5 12.5 31 Q10.5 33.5 13 35.5 Q18 37.5 24 36.5 Q30 37.5 35 35.5 Q37.5 33.5 35.5 31 Q31 28.5 24 30 Z"
        fill="#241812"/>
</svg>
